<svg width="82" height="73" viewBox="0 0 82 73" fill="none" xmlns="http://www.w3.org/2000/svg">
<g filter="url(#filter0_d_429_3175)">
<rect x="21.3229" y="21.8681" width="39.3214" height="29.3542" rx="14.5521" fill="white" stroke="#D9D9D9" stroke-width="2.64583"/>
<path fill-rule="evenodd" clip-rule="evenodd" d="M41.2833 43.4208C39.8545 44.7918 38.0012 45.6194 35.9761 45.6194C31.4572 45.6194 27.7939 41.4986 27.7939 36.4154C27.7939 31.3322 31.4572 27.2114 35.9761 27.2114C38.0013 27.2114 39.8547 28.0391 41.2835 29.4102C42.7123 28.0393 44.5656 27.2117 46.5907 27.2117C51.1096 27.2117 54.7728 31.3324 54.7728 36.4156C54.7728 41.4989 51.1096 45.6196 46.5907 45.6196C44.5654 45.6196 42.712 44.7919 41.2833 43.4208Z" fill="#ED0006"/>
<path fill-rule="evenodd" clip-rule="evenodd" d="M41.2832 43.4209C43.0425 41.7327 44.158 39.2207 44.158 36.4156C44.158 33.6106 43.0425 31.0986 41.2832 29.4104C42.712 28.0393 44.5653 27.2117 46.5905 27.2117C51.1094 27.2117 54.7727 31.3324 54.7727 36.4156C54.7727 41.4989 51.1094 45.6196 46.5905 45.6196C44.5653 45.6196 42.712 44.792 41.2832 43.4209Z" fill="#F9A000"/>
<path fill-rule="evenodd" clip-rule="evenodd" d="M41.2835 43.4208C43.0428 41.7326 44.1583 39.2206 44.1583 36.4155C44.1583 33.6104 43.0428 31.0984 41.2835 29.4102C39.5242 31.0984 38.4087 33.6104 38.4087 36.4155C38.4087 39.2206 39.5242 41.7326 41.2835 43.4208Z" fill="#FF5E00"/>
</g>
<defs>
<filter id="filter0_d_429_3175" x="0" y="0.545166" width="81.9673" height="72" filterUnits="userSpaceOnUse" color-interpolation-filters="sRGB">
<feFlood flood-opacity="0" result="BackgroundImageFix"/>
<feColorMatrix in="SourceAlpha" type="matrix" values="0 0 0 0 0 0 0 0 0 0 0 0 0 0 0 0 0 0 127 0" result="hardAlpha"/>
<feOffset/>
<feGaussianBlur stdDeviation="10"/>
<feComposite in2="hardAlpha" operator="out"/>
<feColorMatrix type="matrix" values="0 0 0 0 0 0 0 0 0 0 0 0 0 0 0 0 0 0 0.07 0"/>
<feBlend mode="normal" in2="BackgroundImageFix" result="effect1_dropShadow_429_3175"/>
<feBlend mode="normal" in="SourceGraphic" in2="effect1_dropShadow_429_3175" result="shape"/>
</filter>
</defs>
</svg>
